# xmcd
#
# Track frame offsets:
#	150
#	14772
#	30620
#	50927
#	71010
#	86902
#	101415
#	122592
#	136237
#	153737
#
# Disc length: 2268 seconds
#
# Revision: 0
# Processed by: cddbd v1.4PL0 Copyright (c) Steve Scherf et al.
# Submitted via: dBpowerAMP V4.0
#
DISCID=8e08da0a
DTITLE=Will Derryberry - Learning Your Sky
DYEAR=1900
DGENRE=Country
TTITLE0=I Saw An Angel
TTITLE1=I Can Count On You
TTITLE2=Wait For The Harvest
TTITLE3=Over Time
TTITLE4=Hear My Cry
TTITLE5=Go No Other
TTITLE6=She Matters To Me
TTITLE7=Tides
TTITLE8=I'm Learning
TTITLE9=Reaching Out To You
EXTD=
EXTT0=
EXTT1=
EXTT2=
EXTT3=
EXTT4=
EXTT5=
EXTT6=
EXTT7=
EXTT8=
EXTT9=
PLAYORDER=
